<?xml version="1.0" encoding="UTF-8"?>
<svg id="Layer_2" data-name="Layer 2" xmlns="http://www.w3.org/2000/svg" viewBox="0 0 100.85 100.83">
  <defs>
    <style>
      .cls-1 {
        fill: #875829;
        stroke-width: 0px;
      }
    </style>
  </defs>
  <g id="Layer_1-2" data-name="Layer 1">
    <g>
      <path class="cls-1" d="m72.39,68.1L32.91,28.62l1.29-1.36c.14-.15.35-.37.56-.59l4.5-4.5c6.62-6.62,13.24-13.24,19.87-19.85.59-.59,1.23-1.03,1.85-1.46.24-.17.49-.33.72-.51l.48-.36h2.65l.45.3c.17.11.34.22.51.32.46.28.99.61,1.47,1.05.86.78,1.67,1.61,2.45,2.41l.46.47c1.3,1.33,1.87,2.69,1.72,4.23,1.67-.19,3,.49,4.68,2.17l2.02,2.02c2.5,2.5,5.01,5.01,7.51,7.51,2.19,2.19,2.44,4.7.72,7.26-.51.77-1.03,1.53-1.54,2.3l2.21-1.5c2.71-1.84,5.06-1.61,7.4.72.33.33.66.65.99.98.88.87,1.8,1.77,2.67,2.71.54.59.98,1.21,1.41,1.8.17.24.34.48.52.72l.36.48v2.71l-.36.48c-.18.24-.34.48-.51.72-.43.62-.87,1.26-1.46,1.85-5.91,5.94-11.84,11.87-17.77,17.8l-6.58,6.58c-.14.14-.26.29-.36.41l-1.42,1.62ZM37.92,28.58l34.35,34.35,5.96-5.96c5.93-5.93,11.85-11.85,17.76-17.79.36-.36.7-.85,1.05-1.36.08-.11.16-.23.24-.34v-.36c-.07-.1-.14-.2-.21-.3-.38-.53-.73-1.03-1.12-1.45-.81-.88-1.69-1.75-2.55-2.59-.34-.33-.68-.66-1.01-1-1.14-1.13-1.57-1.18-2.87-.3l-8.63,5.86c-.18.12-.36.23-.61.4l-6.96,4.48,4.26-7.04c.15-.26.26-.44.38-.62l2.53-3.77c1.13-1.68,2.26-3.37,3.39-5.06.77-1.16.71-1.75-.28-2.74-2.5-2.51-5-5.01-7.51-7.51l-2.02-2.02c-1.43-1.43-1.52-1.44-3.37-.59-.15.07-.31.14-.55.23l-4.33,1.74,1.87-4.49c.14-.33.25-.61.37-.88.5-1.16.43-1.57-.42-2.43l-.46-.47c-.78-.8-1.51-1.55-2.29-2.26-.24-.22-.58-.43-.95-.65-.05-.03-.1-.06-.15-.09h-.42c-.11.08-.22.16-.34.23-.51.35-1,.69-1.36,1.05-6.64,6.6-13.25,13.22-19.87,19.84l-3.88,3.88Z"/>
      <path class="cls-1" d="m13.64,100.83c-.27,0-.53,0-.8-.02-3.74-.22-7.27-2.01-9.68-4.92-2.45-2.96-3.55-6.82-3.04-10.58.51-3.73,2.49-6.96,5.59-9.12,5.38-3.75,10.93-7.41,16.31-10.96,1.78-1.17,3.55-2.35,5.33-3.52,1.47-.98,2.23-1.9,2.52-3.08.44-1.77-.01-3.27-1.44-4.71-1.19-1.19-2.38-2.38-3.57-3.57-.96-.96-1.92-1.91-2.87-2.87-2.58-2.59-2.57-5.44.02-8.03,2.15-2.15,4.3-4.3,6.45-6.45.17-.17.34-.33.49-.46l1.38-1.26,39.2,39.2-1.23,1.26c-.72.74-1.44,1.49-2.17,2.24-1.76,1.82-3.58,3.71-5.46,5.52-1.94,1.87-4.89,1.72-7.01-.37-1.34-1.32-2.67-2.65-4-3.98-.91-.91-1.82-1.82-2.73-2.73-1.43-1.42-2.93-1.87-4.71-1.43-1.18.3-2.11,1.05-3.02,2.44l-1.16,1.78c-3.57,5.46-7.26,11.11-10.95,16.62-1.31,1.96-2.53,3.71-4.1,5.22-2.56,2.46-5.85,3.78-9.34,3.78ZM30.23,36.26c-1.9,1.9-3.81,3.8-5.71,5.71-1.2,1.21-1.21,1.79-.01,2.99.95.96,1.91,1.91,2.87,2.87,1.19,1.19,2.39,2.39,3.58,3.58,2.3,2.32,3.12,5.12,2.37,8.09-.68,2.71-2.62,4.26-4.01,5.19-1.78,1.18-3.56,2.35-5.34,3.53-5.35,3.53-10.89,7.19-16.23,10.91-2.26,1.58-3.72,3.95-4.09,6.67-.38,2.78.44,5.63,2.25,7.82,1.8,2.18,4.33,3.47,7.13,3.63,2.78.16,5.43-.82,7.46-2.77,1.31-1.26,2.41-2.84,3.6-4.62,3.68-5.5,7.37-11.14,10.93-16.59l1.16-1.78c1.4-2.14,3.08-3.43,5.13-3.95,2.99-.76,5.79.06,8.1,2.36.92.91,1.83,1.83,2.74,2.74,1.32,1.32,2.64,2.65,3.97,3.96.2.19,1.22,1.12,2.02.35,1.83-1.77,3.63-3.63,5.37-5.43.32-.33.64-.66.95-.99L30.23,36.26Zm-16.39,57.15c-1.71,0-3.32-.67-4.54-1.9-1.22-1.23-1.89-2.85-1.87-4.57.03-3.5,2.9-6.36,6.4-6.37h.02c1.67,0,3.33.7,4.54,1.93,1.21,1.23,1.9,2.89,1.87,4.56-.05,3.49-2.93,6.34-6.41,6.34h-.01Zm0-9.26h0c-1.53,0-2.83,1.3-2.84,2.82,0,.76.29,1.48.83,2.02.54.54,1.25.84,2,.84h0c1.54,0,2.82-1.27,2.84-2.82.01-.72-.29-1.44-.84-1.99-.55-.55-1.28-.87-2-.87Z"/>
    </g>
  </g>
</svg>