<?xml version="1.0" encoding="UTF-8"?>
<svg id="Layer_2" data-name="Layer 2" xmlns="http://www.w3.org/2000/svg" viewBox="0 0 101.05 101.03">
  <defs>
    <style>
      .cls-1 {
        fill: #875829;
        stroke-width: 0px;
      }
    </style>
  </defs>
  <g id="Layer_1-2" data-name="Layer 1">
    <g>
      <path class="cls-1" d="m56.94,56.83H12.49v3.13c0,12.56,0,25.12,0,37.68,0,3.33-.06,3.39-3.43,3.38-6.68-.02-5.84.67-5.86-5.94-.03-11.68,0-23.36,0-35.04,0-.96,0-1.92,0-3.13C-.23,57.09-.01,54.84.01,52.53c.06-5.56-.39-5.13,5.12-5.13,6.57,0,13.15,0,19.95,0v-6.35c-.91-.04-1.84-.11-2.77-.12-4.65-.01-9.31.03-13.96-.02-3.19-.03-5.1-1.72-5.12-4.76-.07-10.45-.07-20.9,0-31.35C3.25,1.85,5.09.04,8.06.03c15.63-.05,31.26-.05,46.89,0,3.12,0,4.93,1.83,4.94,4.94.05,10.28.05,20.55,0,30.83-.02,3.4-1.83,5.1-5.3,5.12-5.5.03-11.01,0-16.67,0v6.24h28.35c.05-.88.15-1.8.15-2.73.01-7.47.07-14.93-.03-22.4-.03-2.25.63-3.19,2.98-3.11,6.22.21,12.44.31,18.66.34,1.19,0,2.39-.47,3.57-.78,1.63-.43,2.68-.1,3.09,1.76,1.96,8.82,4.06,17.62,5.93,26.46.47,2.2.2,4.55.4,6.81.19,2.15-.47,3.44-3.16,3.26,0,1.15,0,2.17,0,3.2,0,12.47,0,24.94,0,37.41,0,3.59,0,3.61-3.46,3.61-11.33,0-22.65.01-33.98,0-3.39,0-3.47-.09-3.47-3.61,0-12.38,0-24.77,0-37.15,0-1.04,0-2.08,0-3.43Zm0-25.31c0-8.62-.08-16.94.04-25.26.04-2.55-.87-3.34-3.37-3.33-14.73.08-29.46.08-44.2-.01-2.59-.02-3.33.98-3.29,3.43.11,7.54.03,15.09.05,22.63,0,.84.09,1.67.14,2.54h50.63Zm3.09,66.32h34.65v-18.77h-34.65v18.77Zm.06-40.99v18.87h34.62v-18.87h-34.62Zm-56.96-3.28h94.76v-2.99H3.13v2.99Zm3.2-18.81c-.38,2.07.14,3.19,2.32,3.19,15.25-.02,30.5,0,45.76-.03,2.35,0,2.68-.59,2.1-3.16H6.33Zm3.01,63.15v-41.02h-2.97v41.02h2.97Zm88.22-51.78c-1.92-8.37-3.76-16.37-5.64-24.57-1.17.29-2.07.51-3.25.8,1.9,8.3,3.75,16.37,5.65,24.68,1.19-.34,2.08-.59,3.24-.91Zm-25.01,1.13v-25.12h-2.96v25.12h2.96Zm3.28-.07h3.06v-25.06h-3.06v25.06Zm9.33.05v-25.32c-1.16.07-2.07.13-2.9.18v25.14h2.9Zm-56.68-6.19v6.16h6.13v-6.16h-6.13Zm60.48-4.01c-.15.05-.29.1-.44.15v9.97h2.77c-.82-3.55-1.58-6.83-2.33-10.12Z"/>
      <path class="cls-1" d="m78.83,88.48h-2.84c-.09.4-.09.86-.3,1.17-.43.65-.98,1.22-1.48,1.82-.49-.71-1.31-1.38-1.4-2.14-.41-3.5.06-3.92,3.61-3.94.61,0,1.23,0,1.84,0,3.67,0,4.03.32,3.71,3.84-.07.78-.83,1.5-1.27,2.25-.54-.65-1.12-1.28-1.61-1.96-.18-.25-.17-.63-.26-1.04Z"/>
      <path class="cls-1" d="m78.79,63.16h-2.76c-.1.36-.12.8-.33,1.12-.43.65-.96,1.24-1.45,1.85-.5-.7-1.34-1.36-1.43-2.1-.42-3.51.06-3.95,3.57-3.96.7,0,1.4,0,2.1,0,3.46,0,3.78.28,3.48,3.76-.07.8-.79,1.54-1.21,2.31-.57-.72-1.15-1.42-1.69-2.16-.14-.19-.17-.47-.28-.8Z"/>
    </g>
  </g>
</svg>