<?xml version="1.0" encoding="UTF-8"?>
<svg id="Layer_2" data-name="Layer 2" xmlns="http://www.w3.org/2000/svg" viewBox="0 0 120.17 100.46">
  <defs>
    <style>
      .cls-1 {
        fill: #875829;
        stroke-width: 0px;
      }
    </style>
  </defs>
  <g id="Layer_1-2" data-name="Layer 1">
    <path class="cls-1" d="m118.87,52.42c-4.1-3.7-8.19-7.43-12.33-11.09-.82-.72-1.13-1.47-1.12-2.54.04-6.84.02-13.68.03-20.52,0-.53.06-1.05.11-1.76.72,0,1.31.01,1.9,0,1.99-.05,2.52-.58,2.53-2.56.01-2.08,0-4.16,0-6.24,0-1.39-.65-2.19-2.06-2.2-7.61-.01-15.21-.01-22.82,0-1.24,0-1.96.69-1.98,1.93-.04,2.35-.04,4.71,0,7.06.02,1.23.69,1.93,1.94,1.98.8.03,1.61,0,2.48,0v7.6c-.75-.66-1.28-1.12-1.8-1.58-7.92-7.15-15.84-14.3-23.76-21.45-1.54-1.39-2.16-1.41-3.65-.06C39.3,18.15,20.28,35.3,1.26,52.45c-.79.72-1.6,1.44-1.11,2.65.48,1.19,1.56,1.23,2.62,1.23,3.34,0,6.68-.04,10.02.01,1.84.03,3.65.1,4.89-1.74.12.08.25.17.37.25,0,.58,0,1.17,0,1.75,0,13.63,0,27.25,0,40.88,0,2.5.46,2.96,2.96,2.96,26.05,0,52.1,0,78.16,0,2.6,0,3.01-.42,3.01-3.08,0-13.57,0-27.14,0-40.72v-1.63c1.39.48,2.57,1.19,3.77,1.24,3.83.15,7.66.05,11.49.06,1.08,0,2.14-.07,2.59-1.27.47-1.23-.38-1.93-1.16-2.64Zm-31.85-39.7v-3.39h19.06v3.39h-19.06Zm4.35,5.25c-.02-1,.22-1.51,1.36-1.48,2.57.06,5.14.04,7.7.01.84,0,1.32.18,1.32,1.17-.03,6.12-.02,12.24-.03,18.36,0,.14-.09.28-.23.66-1.3-1.16-2.5-2.23-3.7-3.31-1.83-1.64-3.69-3.25-5.45-4.97-.48-.47-.89-1.27-.91-1.93-.1-2.84-.01-5.68-.06-8.52Zm6.99,73.15c0,1.56.04,3.07-.03,4.58,0,0,0,.01,0,.02v.72h-.55c-.07.04-.13.06-.18.07-3.21.06-6.41.04-9.73.04v-.1h-4.76c-.08.04-.16.07-.22.07-5.07.05-10.14.04-15.37.04v-.11h-3.89v.07H21.86c-.03-.6-.08-1.19-.08-1.77,0-14.01,0-28.02-.03-42.03,0-1.19.33-2.01,1.24-2.82,11.96-10.68,23.88-21.41,35.81-32.12.4-.36.82-.7,1.33-1.13,1.79,1.6,3.54,3.15,5.28,4.72,10.67,9.58,21.34,19.16,31.99,28.76.45.41,1,1.03,1,1.55.08,5.14.05,10.27.05,15.68h-.15v5.03c.37.76.33,1.96,0,3.77v14.97h.04Zm7.8-38.62c-.64-.04-1.27-.77-1.83-1.27-14.02-12.57-28.03-25.15-42.03-37.73-1.99-1.79-2.37-1.78-4.39.03-14.13,12.69-28.25,25.39-42.42,38.05-.62.55-1.6.9-2.44.96-1.9.14-3.82.04-5.73.04-.05-.12-.11-.23-.16-.35C24.76,36.33,42.38,20.43,60.11,4.44c17.69,15.98,35.3,31.88,53.29,48.11-2.73,0-5,.1-7.25-.06Z"/>
  </g>
</svg>